# xmcd
#
# Track frame offsets: 
#        150
#        11665
#        30072
#        48122
#        56667
#        70727
#        80407
#        101482
#        117310
#        131920
#        147225
#        162735
#        182045
#        196405
#        206802
#        215584
#        225222
#        233642
#        249027
#
# Disc length: 3437 seconds
#
# Revision: 1
# Processed by: cddbd v1.5.2PL0 Copyright (c) Steve Scherf et al.
# Submitted via: ExactAudioCopy v0.99pb5
#
DISCID=fe0d6b13
DTITLE=Various Artist - Musical Travelogue
DYEAR=2006
DGENRE=Blues
TTITLE0=R.L. Burnside - Long haired doney
TTITLE1=Billy Strange - Blue wait
TTITLE2=R.L. Burnside - Rolling an dtumbling
TTITLE3=Bob Gibson - Twelve string guitar
TTITLE4=R.L. Burnside - Sweet little angel
TTITLE5=Mason Williams - Honey miss me when I'm gone
TTITLE6=R.L. Burnside - Catfish blues
TTITLE7=Scotty Stoneman - The mocking bird
TTITLE8=Le Concert Arban - Mississippi rag
TTITLE9=Howard Roberts - Cotton field
TTITLE10=Alan Lomax - The dying cowboy
TTITLE11=Mason Williams - Nashville
TTITLE12=Alan Lomax - Rambling gambler
TTITLE13=Scotty Stoneman - Wildwood flower
TTITLE14=Alan Lomax - Black Betty
TTITLE15=James Mc Quinn - Saint soul song
TTITLE16=Alan Lomax - All the pretty little horses
TTITLE17=R.L. Burnside - Nightmare blue
TTITLE18=Scotty Stoneman - Old joe clark
EXTD=
EXTT0=
EXTT1=
EXTT2=
EXTT3=
EXTT4=
EXTT5=
EXTT6=
EXTT7=
EXTT8=
EXTT9=
EXTT10=
EXTT11=
EXTT12=
EXTT13=
EXTT14=
EXTT15=
EXTT16=
EXTT17=
EXTT18=
PLAYORDER=
